<?xml version="1.0" encoding="UTF-8" standalone="no"?>
<!-- Created with Inkscape (http://www.inkscape.org/) -->

<svg
   xmlns:dc="http://purl.org/dc/elements/1.1/"
   xmlns:cc="http://creativecommons.org/ns#"
   xmlns:rdf="http://www.w3.org/1999/02/22-rdf-syntax-ns#"
   xmlns:svg="http://www.w3.org/2000/svg"
   xmlns="http://www.w3.org/2000/svg"
   xmlns:sodipodi="http://sodipodi.sourceforge.net/DTD/sodipodi-0.dtd"
   xmlns:inkscape="http://www.inkscape.org/namespaces/inkscape"
   width="90.17009mm"
   height="52.872089mm"
   viewBox="0 0 90.17009 52.872089"
   version="1.1"
   id="svg8"
   inkscape:version="0.92.3 (2405546, 2018-03-11)"
   sodipodi:docname="iphone-laptop-responsive.svg">
  <sodipodi:namedview
     id="base"
     pagecolor="#ffffff"
     bordercolor="#666666"
     borderopacity="1.0"
     inkscape:pageopacity="0.0"
     inkscape:pageshadow="2"
     inkscape:zoom="1.4"
     inkscape:cx="175.13589"
     inkscape:cy="58.607693"
     inkscape:document-units="mm"
     inkscape:current-layer="layer1"
     showgrid="false"
     inkscape:window-width="1366"
     inkscape:window-height="712"
     inkscape:window-x="0"
     inkscape:window-y="0"
     inkscape:window-maximized="1"
     inkscape:snap-to-guides="false"
     inkscape:snap-grids="false"
     inkscape:snap-others="false"
     fit-margin-top="0"
     fit-margin-left="0"
     fit-margin-right="0"
     fit-margin-bottom="0" />
  <defs
     id="defs2" />
  <metadata
     id="metadata5">
    <rdf:RDF>
      <cc:Work
         rdf:about="">
        <dc:format>image/svg+xml</dc:format>
        <dc:type
           rdf:resource="http://purl.org/dc/dcmitype/StillImage" />
        <dc:title></dc:title>
      </cc:Work>
    </rdf:RDF>
  </metadata>
  <g
     id="layer1"
     inkscape:groupmode="layer"
     inkscape:label="Capa 1"
     transform="translate(-85.3055,-80.797615)">
    <g
       id="g2921">
      <g
         id="g2855">
        <rect
           rx="1.8040686"
           ry="2.2012575"
           y="80.797615"
           x="96.572914"
           height="40.254471"
           width="71.24852"
           id="rect2166"
           style="fill:#b3b3b3;fill-opacity:1;stroke:none;stroke-width:0.26458332" />
        <path
           id="rect2168"
           transform="scale(0.26458333)"
           d="m 342.89062,461.80469 c -3.77746,0 -6.81835,3.71121 -6.81835,8.32031 v 4.78906 c 0,4.60914 3.04089,8.32032 6.81835,8.32032 h 313.50586 c 3.77745,-10e-6 6.81836,-3.71118 6.81836,-8.32032 V 470.125 c 0,-4.6091 -3.04091,-8.32031 -6.81836,-8.32031 H 527.5918 c -0.10658,4.19673 -3.09901,7.54101 -6.8086,7.54101 h -42.28125 c -3.70962,0 -6.70202,-3.34428 -6.80859,-7.54101 z"
           style="fill:#b3b3b3;fill-opacity:1;stroke:none;stroke-width:0.99999994"
           inkscape:connector-curvature="0" />
        <rect
           style="fill:#1a1a1a;fill-opacity:1;stroke:none;stroke-width:0.23725547"
           id="rect2182"
           width="69.10128"
           height="35.695824"
           x="97.446083"
           y="82.876488"
           ry="0"
           rx="0.058585029" />
        <rect
           ry="0"
           rx="0.066333838"
           y="82.886078"
           x="151.67545"
           height="35.686234"
           width="14.871911"
           id="rect2184"
           style="fill:#b3b3b3;fill-opacity:1;stroke:none;stroke-width:0.28153762" />
        <rect
           style="fill:#cccccc;fill-opacity:1;stroke:none;stroke-width:0.32577643"
           id="rect2186"
           width="27.834484"
           height="25.529993"
           x="109.98141"
           y="87.296028"
           rx="0.12415136"
           ry="0" />
        <path
           inkscape:connector-curvature="0"
           id="path2188"
           d="m 109.98141,87.296026 h 27.83447"
           style="fill:none;stroke:#2c5aa0;stroke-width:0.60000002;stroke-linecap:butt;stroke-linejoin:miter;stroke-miterlimit:4;stroke-dasharray:none;stroke-opacity:1" />
        <path
           inkscape:connector-curvature="0"
           d="m 111.16259,93.060163 c 0,0 25.04689,0 25.04689,0"
           style="opacity:0.76399997;fill:none;stroke:#999999;stroke-width:0.5281139;stroke-linecap:butt;stroke-linejoin:miter;stroke-miterlimit:4;stroke-dasharray:none;stroke-opacity:1"
           id="path2609" />
        <path
           inkscape:connector-curvature="0"
           d="m 111.16259,92.382956 c 0,0 8.60492,0 8.60492,0"
           style="opacity:0.76399997;fill:none;stroke:#999999;stroke-width:0.30954531;stroke-linecap:butt;stroke-linejoin:miter;stroke-miterlimit:4;stroke-dasharray:none;stroke-opacity:1"
           id="path2611" />
        <path
           inkscape:connector-curvature="0"
           d="m 111.16259,91.705748 c 0,0 25.04689,0 25.04689,0"
           style="opacity:0.76399997;fill:none;stroke:#999999;stroke-width:0.5281139;stroke-linecap:butt;stroke-linejoin:miter;stroke-miterlimit:4;stroke-dasharray:none;stroke-opacity:1"
           id="path2613" />
        <path
           inkscape:connector-curvature="0"
           d="m 111.16259,91.028541 c 0,0 25.04689,0 25.04689,0"
           style="opacity:0.76399997;fill:none;stroke:#999999;stroke-width:0.5281139;stroke-linecap:butt;stroke-linejoin:miter;stroke-miterlimit:4;stroke-dasharray:none;stroke-opacity:1"
           id="path2615" />
        <path
           inkscape:connector-curvature="0"
           d="m 111.16259,90.351334 c 0,0 25.04689,0 25.04689,0"
           style="opacity:0.76399997;fill:none;stroke:#999999;stroke-width:0.5281139;stroke-linecap:butt;stroke-linejoin:miter;stroke-miterlimit:4;stroke-dasharray:none;stroke-opacity:1"
           id="path2617" />
        <path
           inkscape:connector-curvature="0"
           d="m 111.16259,89.674126 c 0,0 25.04689,0 25.04689,0"
           style="opacity:0.76399997;fill:none;stroke:#999999;stroke-width:0.5281139;stroke-linecap:butt;stroke-linejoin:miter;stroke-miterlimit:4;stroke-dasharray:none;stroke-opacity:1"
           id="path2619" />
        <path
           inkscape:connector-curvature="0"
           d="m 111.16259,88.996919 c 0,0 25.04689,0 25.04689,0"
           style="opacity:0.76399997;fill:none;stroke:#999999;stroke-width:0.5281139;stroke-linecap:butt;stroke-linejoin:miter;stroke-miterlimit:4;stroke-dasharray:none;stroke-opacity:1"
           id="path2621" />
        <path
           id="path2689"
           style="opacity:0.76399997;fill:none;stroke:#999999;stroke-width:0.45188141;stroke-linecap:butt;stroke-linejoin:miter;stroke-miterlimit:4;stroke-dasharray:none;stroke-opacity:1"
           d="m 111.16259,98.304583 c 0,0 18.33781,0 18.33781,0"
           inkscape:connector-curvature="0" />
        <path
           id="path2691"
           style="opacity:0.76399997;fill:none;stroke:#999999;stroke-width:0.5281139;stroke-linecap:butt;stroke-linejoin:miter;stroke-miterlimit:4;stroke-dasharray:none;stroke-opacity:1"
           d="m 111.16259,97.627376 c 0,0 25.04689,0 25.04689,0"
           inkscape:connector-curvature="0" />
        <path
           id="path2693"
           style="opacity:0.76399997;fill:none;stroke:#999999;stroke-width:0.5281139;stroke-linecap:butt;stroke-linejoin:miter;stroke-miterlimit:4;stroke-dasharray:none;stroke-opacity:1"
           d="m 111.16259,96.950168 c 0,0 25.04689,0 25.04689,0"
           inkscape:connector-curvature="0" />
        <path
           id="path2695"
           style="opacity:0.76399997;fill:none;stroke:#999999;stroke-width:0.5281139;stroke-linecap:butt;stroke-linejoin:miter;stroke-miterlimit:4;stroke-dasharray:none;stroke-opacity:1"
           d="m 111.16259,96.272961 c 0,0 25.04689,0 25.04689,0"
           inkscape:connector-curvature="0" />
        <path
           id="path2697"
           style="opacity:0.76399997;fill:none;stroke:#999999;stroke-width:0.5281139;stroke-linecap:butt;stroke-linejoin:miter;stroke-miterlimit:4;stroke-dasharray:none;stroke-opacity:1"
           d="m 111.16259,95.595754 c 0,0 25.04689,0 25.04689,0"
           inkscape:connector-curvature="0" />
        <path
           id="path2699"
           style="opacity:0.76399997;fill:none;stroke:#999999;stroke-width:0.5281139;stroke-linecap:butt;stroke-linejoin:miter;stroke-miterlimit:4;stroke-dasharray:none;stroke-opacity:1"
           d="m 111.16259,94.918546 c 0,0 25.04689,0 25.04689,0"
           inkscape:connector-curvature="0" />
        <path
           id="path2701"
           style="opacity:0.76399997;fill:none;stroke:#999999;stroke-width:0.5281139;stroke-linecap:butt;stroke-linejoin:miter;stroke-miterlimit:4;stroke-dasharray:none;stroke-opacity:1"
           d="m 111.16259,94.241339 c 0,0 25.04689,0 25.04689,0"
           inkscape:connector-curvature="0" />
        <path
           inkscape:connector-curvature="0"
           d="m 111.16259,103.59625 c 0,0 13.14064,0 13.14064,0"
           style="opacity:0.76399997;fill:none;stroke:#999999;stroke-width:0.38252422;stroke-linecap:butt;stroke-linejoin:miter;stroke-miterlimit:4;stroke-dasharray:none;stroke-opacity:1"
           id="path2705" />
        <path
           inkscape:connector-curvature="0"
           d="m 111.16259,102.91904 c 0,0 25.04689,0 25.04689,0"
           style="opacity:0.76399997;fill:none;stroke:#999999;stroke-width:0.5281139;stroke-linecap:butt;stroke-linejoin:miter;stroke-miterlimit:4;stroke-dasharray:none;stroke-opacity:1"
           id="path2707" />
        <path
           inkscape:connector-curvature="0"
           d="m 111.16259,102.24184 c 0,0 25.04689,0 25.04689,0"
           style="opacity:0.76399997;fill:none;stroke:#999999;stroke-width:0.5281139;stroke-linecap:butt;stroke-linejoin:miter;stroke-miterlimit:4;stroke-dasharray:none;stroke-opacity:1"
           id="path2709" />
        <path
           inkscape:connector-curvature="0"
           d="m 111.16259,101.56463 c 0,0 25.04689,0 25.04689,0"
           style="opacity:0.76399997;fill:none;stroke:#999999;stroke-width:0.5281139;stroke-linecap:butt;stroke-linejoin:miter;stroke-miterlimit:4;stroke-dasharray:none;stroke-opacity:1"
           id="path2711" />
        <path
           inkscape:connector-curvature="0"
           d="m 111.16259,100.88742 c 0,0 25.04689,0 25.04689,0"
           style="opacity:0.76399997;fill:none;stroke:#999999;stroke-width:0.5281139;stroke-linecap:butt;stroke-linejoin:miter;stroke-miterlimit:4;stroke-dasharray:none;stroke-opacity:1"
           id="path2713" />
        <path
           inkscape:connector-curvature="0"
           d="m 111.16259,100.21021 c 0,0 25.04689,0 25.04689,0"
           style="opacity:0.76399997;fill:none;stroke:#999999;stroke-width:0.5281139;stroke-linecap:butt;stroke-linejoin:miter;stroke-miterlimit:4;stroke-dasharray:none;stroke-opacity:1"
           id="path2715" />
        <path
           inkscape:connector-curvature="0"
           d="m 111.16259,99.533006 c 0,0 25.04689,0 25.04689,0"
           style="opacity:0.76399997;fill:none;stroke:#999999;stroke-width:0.5281139;stroke-linecap:butt;stroke-linejoin:miter;stroke-miterlimit:4;stroke-dasharray:none;stroke-opacity:1"
           id="path2717" />
        <g
           id="g2773"
           transform="matrix(1.2413793,0,0,1.2413793,-39.33504,-19.044951)">
          <circle
             style="fill:#2c5aa0;fill-opacity:1;stroke:none;stroke-width:0.26458332"
             id="circle2764"
             cx="159.85963"
             cy="85.47731"
             r="1.9377041" />
          <path
             style="fill:#dbe2e3;stroke-width:0.00258466"
             d="m 159.60974,86.544971 c -0.0161,-0.009 -0.0212,-0.0141 -0.03,-0.0315 -0.009,-0.0175 -0.009,-0.0413 5.5e-4,-0.0597 0.009,-0.0177 0.0127,-0.0218 0.0281,-0.0299 l 0.0129,-0.007 0.084,-0.002 0.084,-0.002 6.8e-4,-0.10914 6.7e-4,-0.10914 -0.006,-0.002 c -0.003,-5.8e-4 -0.0175,-0.003 -0.0317,-0.005 -0.0663,-0.0112 -0.13812,-0.039 -0.20086,-0.0778 -0.094,-0.0581 -0.16366,-0.13418 -0.21368,-0.23318 -0.0237,-0.0469 -0.0347,-0.0752 -0.0452,-0.11682 -0.0161,-0.0633 -0.0177,-0.0815 -0.019,-0.21039 l -0.001,-0.11631 0.007,-0.0142 c 0.006,-0.0117 0.01,-0.0157 0.0215,-0.022 0.0126,-0.007 0.0167,-0.008 0.0362,-0.008 0.0195,0 0.0236,7.5e-4 0.0362,0.008 0.011,0.006 0.0158,0.0107 0.0211,0.0205 l 0.007,0.0128 0.001,0.11647 c 0.001,0.10499 0.002,0.11938 0.007,0.14605 0.0118,0.0633 0.0406,0.13294 0.0747,0.18097 0.0195,0.0274 0.062,0.0728 0.0881,0.094 0.11369,0.0924 0.26965,0.12363 0.41454,0.083 0.0732,-0.0206 0.13345,-0.0557 0.19033,-0.11082 0.0561,-0.0545 0.0888,-0.10546 0.11359,-0.17744 0.0225,-0.0653 0.0267,-0.10276 0.0259,-0.23267 l -5.8e-4,-0.0993 0.007,-0.0132 c 0.005,-0.0101 0.0104,-0.0151 0.0205,-0.0206 0.0119,-0.007 0.0158,-0.008 0.0366,-0.008 0.0301,7e-5 0.0463,0.008 0.0574,0.0264 l 0.007,0.0123 -1.4e-4,0.1176 c -1.6e-4,0.13087 -0.002,0.14923 -0.018,0.21339 -0.0105,0.0413 -0.0223,0.0718 -0.0455,0.1177 -0.0656,0.12986 -0.16759,0.22309 -0.30623,0.27987 -0.0431,0.0177 -0.0742,0.0257 -0.14449,0.0375 l -0.0103,0.002 v 0.10848 0.10847 l 0.0763,0.002 0.0762,0.002 0.0122,0.007 c 0.0223,0.0132 0.0341,0.034 0.034,0.06 -1.3e-4,0.0281 -0.0125,0.0483 -0.0372,0.0608 l -0.0153,0.008 -0.22171,-5e-5 -0.2217,-5e-5 -0.0142,-0.008 z m 0.18351,-0.54381 c -0.0293,-0.005 -0.0507,-0.0113 -0.075,-0.0212 -0.0914,-0.0375 -0.15954,-0.1017 -0.20131,-0.18963 -0.0229,-0.0482 -0.033,-0.0892 -0.0357,-0.14448 -0.002,-0.0319 -0.001,-0.0334 0.005,-0.0482 0.009,-0.019 0.0127,-0.0234 0.028,-0.0312 0.009,-0.005 0.0163,-0.006 0.0297,-0.006 0.0417,5e-5 0.0653,0.0268 0.0653,0.0737 0,0.0423 0.0163,0.0962 0.0397,0.13138 0.0165,0.0247 0.0555,0.0633 0.0773,0.0762 0.0523,0.0312 0.12301,0.0431 0.17894,0.0304 0.0537,-0.0122 0.0889,-0.0315 0.12545,-0.0684 0.0351,-0.0355 0.0539,-0.0706 0.0662,-0.12311 0.005,-0.0193 0.005,-0.0351 0.005,-0.23779 v -0.21711 l -0.31016,-0.002 -0.31016,-0.002 v -0.24554 c 0,-0.22692 3.7e-4,-0.24731 0.005,-0.2688 0.01,-0.0485 0.0334,-0.10407 0.062,-0.14581 0.0185,-0.027 0.0597,-0.0689 0.0866,-0.0881 0.0261,-0.0186 0.0745,-0.0436 0.1031,-0.0532 0.0642,-0.0215 0.14059,-0.0242 0.20918,-0.008 0.082,0.0202 0.16051,0.0727 0.21018,0.14073 0.009,0.0121 0.0244,0.0388 0.0347,0.0594 0.0264,0.0532 0.0378,0.0986 0.0378,0.15134 0,0.0224 -7.5e-4,0.0264 -0.007,0.038 -0.006,0.011 -0.01,0.0142 -0.0226,0.0203 -0.0219,0.0104 -0.0465,0.0104 -0.0663,1.5e-4 -0.0218,-0.0114 -0.0287,-0.0251 -0.0327,-0.0647 -0.003,-0.0335 -0.0135,-0.0704 -0.0265,-0.0961 -0.0165,-0.0327 -0.0559,-0.0746 -0.0905,-0.0962 -0.0381,-0.0237 -0.0954,-0.0377 -0.14195,-0.0347 -0.0639,0.004 -0.11657,0.0275 -0.16057,0.0714 -0.0332,0.0331 -0.0507,0.0634 -0.064,0.11076 l -0.007,0.025 v 0.17705 0.17705 l 0.30886,0.002 0.30887,0.002 7.3e-4,0.28559 c 8.3e-4,0.31767 0.001,0.31105 -0.0164,0.36399 -0.0251,0.0757 -0.0754,0.14508 -0.13694,0.18875 -0.0233,0.0166 -0.0794,0.0456 -0.10325,0.0535 -0.0355,0.0117 -0.0561,0.0147 -0.10855,0.0156 -0.0356,5.8e-4 -0.0577,-1.5e-4 -0.0711,-0.002 z"
             id="path2766"
             inkscape:connector-curvature="0"
             sodipodi:nodetypes="cccccccccccscsscscscccscscssssccccccccsscccccccccccccccssccccscccssscccscccssccscscccsscscccccsscsccc" />
          <circle
             r="1.6411668"
             cy="85.47731"
             cx="159.85963"
             id="circle2768"
             style="fill:none;fill-opacity:1;stroke:#d7eef4;stroke-width:0.22409271" />
        </g>
        <rect
           ry="0.13846081"
           y="102.28329"
           x="156.63919"
           height="1.3292246"
           width="4.9444137"
           id="rect2779"
           style="fill:#2c5aa0;fill-opacity:1;stroke:none;stroke-width:0.24420679" />
        <rect
           ry="0"
           y="116.42263"
           x="151.67255"
           height="2.1496811"
           width="14.874817"
           id="rect2781"
           style="fill:#000000;fill-opacity:1;stroke:none;stroke-width:0.26458332" />
        <g
           style="fill:#ffffff"
           id="g2789"
           transform="matrix(0.00302134,0,0,0.00302134,164.18358,116.00051)">
          <g
             transform="matrix(5.9642345,0,0,5.9642345,-3911.5977,1766.7253)"
             id="g2787"
             style="fill:#ffffff">
            <path
               inkscape:connector-curvature="0"
               id="path2783"
               d="m 686.72031,-256.42554 c -4.47442,0 -8.18192,3.52565 -8.18192,7.7804 v 46.68088 c 0,5.59197 1.53418,10.819 4.21886,15.31689 -3.19604,1.33721 -5.36919,4.49792 -5.36919,8.02328 0,4.86258 4.09099,8.75244 9.20461,8.75244 3.7074,0 6.90333,-2.06651 8.30956,-5.10563 4.85796,2.67442 10.35534,4.13308 16.36387,4.13308 18.02556,0 32.72719,-13.97945 32.72719,-31.12006 0,-7.50338 -2.81763,-14.40144 -7.49774,-19.78587 l -11.47111,11.33574 c 1.64737,2.42961 2.605,5.3274 2.605,8.45013 0,8.63109 -7.28665,15.55977 -16.36334,15.55977 -9.07671,0 -16.36387,-6.92868 -16.36387,-15.55977 0,-8.63108 7.28716,-15.56029 16.36387,-15.56029 2.42798,0 4.7252,0.49956 6.79183,1.39113 l 12.21977,-11.83456 c -5.25748,-3.42736 -12.17971,-5.11686 -19.0116,-5.11686 -6.00853,0 -11.63375,1.5801 -16.36387,4.25452 v -19.81482 c 0,-4.25475 -3.70747,-7.7804 -8.18192,-7.7804 z"
               style="font-style:normal;font-variant:normal;font-weight:normal;font-stretch:normal;font-size:medium;font-family:'Geometry Soft Pro';-inkscape-font-specification:'Geometry Soft Pro';fill:#ffffff;fill-opacity:1;stroke:none;stroke-width:3.11658096" />
            <path
               inkscape:connector-curvature="0"
               id="path2785"
               d="m 743.46041,-186.49731 c -4.94345,7.82124 -8.01003,11.8984 -18.5717,15.72761 l 31.40794,-0.002 c 3.82304,-0.04 6.89281,-4.07229 6.93602,-7.75974 0.0426,-3.63694 -3.05533,-7.96537 -6.93602,-7.9654 z"
               style="fill:#ffffff;fill-opacity:1;stroke-width:3.25194788" />
          </g>
        </g>
        <g
           id="g2799"
           transform="translate(-0.47148895)">
          <rect
             style="fill:#ffffff;fill-opacity:1;stroke:none;stroke-width:0.33227956"
             id="rect2775"
             width="9.1539087"
             height="1.3292246"
             x="155.00594"
             y="97.238586"
             ry="0.13846081" />
          <rect
             ry="0.13846081"
             y="99.243118"
             x="155.00594"
             height="1.3292246"
             width="9.1539087"
             id="rect2777"
             style="fill:#ffffff;fill-opacity:1;stroke:none;stroke-width:0.33227956" />
          <path
             style="fill:none;stroke:#808080;stroke-width:0.26458332px;stroke-linecap:butt;stroke-linejoin:miter;stroke-opacity:1"
             d="m 155.35496,99.907735 h 4.18137"
             id="path2791"
             inkscape:connector-curvature="0" />
          <path
             inkscape:connector-curvature="0"
             id="path2793"
             d="m 155.35496,97.903195 h 4.18137"
             style="fill:none;stroke:#808080;stroke-width:0.26458332px;stroke-linecap:butt;stroke-linejoin:miter;stroke-opacity:1" />
        </g>
      </g>
      <g
         transform="matrix(1.2582477,0,0,1.2582477,11.657715,-33.547013)"
         id="g2122">
        <rect
           ry="1.2284226"
           y="102.16051"
           x="58.532024"
           height="30.735994"
           width="15.367997"
           id="rect815"
           style="fill:#ffffff;fill-opacity:0.99324323;stroke:none;stroke-width:0.26458332" />
        <rect
           ry="0"
           y="105.32696"
           x="58.821865"
           height="24.40309"
           width="14.788316"
           id="rect817"
           style="fill:#808080;fill-opacity:1;stroke:none;stroke-width:0.25769067" />
        <rect
           ry="0.13363476"
           y="103.6639"
           x="64.779449"
           height="0.26726952"
           width="2.873147"
           id="rect819"
           style="fill:#000000;fill-opacity:1;stroke:none;stroke-width:0.16426218" />
        <circle
           r="0.28397387"
           cy="103.79754"
           cx="63.666222"
           id="path821"
           style="fill:#000000;fill-opacity:1;stroke:none;stroke-width:0.1665895" />
        <circle
           style="fill:#000000;fill-opacity:1;stroke:none;stroke-width:0.07839505"
           id="circle823"
           cx="66.216026"
           cy="102.96234"
           r="0.13363478" />
        <circle
           r="1.0690781"
           cy="131.38235"
           cx="66.216026"
           id="path825"
           style="fill:#808080;fill-opacity:1;stroke:none;stroke-width:0.26458332" />
        <circle
           style="fill:#ffffff;fill-opacity:1;stroke:none;stroke-width:0.24119724"
           id="circle827"
           cx="66.216026"
           cy="131.38235"
           r="0.97458404" />
        <circle
           r="1.9377041"
           cy="108.53387"
           cx="66.216026"
           id="path1454"
           style="fill:#2c5aa0;fill-opacity:1;stroke:none;stroke-width:0.26458332" />
        <path
           sodipodi:nodetypes="cccccccccccscsscscscccscscssssccccccccsscccccccccccccccssccccscccssscccscccssccscscccsscscccccsscsccc"
           inkscape:connector-curvature="0"
           id="path230"
           d="m 65.966135,109.60152 c -0.01612,-0.009 -0.0212,-0.0141 -0.02999,-0.0315 -0.0089,-0.0175 -0.0086,-0.0413 5.58e-4,-0.0597 0.0089,-0.0177 0.01269,-0.0218 0.02814,-0.0299 l 0.01292,-0.007 0.084,-0.002 0.084,-0.002 6.74e-4,-0.10914 6.75e-4,-0.10914 -0.0058,-0.002 c -0.0032,-5.8e-4 -0.01748,-0.003 -0.03169,-0.005 -0.06628,-0.0112 -0.138124,-0.039 -0.200861,-0.0778 -0.09398,-0.0581 -0.163667,-0.13418 -0.213678,-0.23318 -0.02369,-0.0469 -0.03468,-0.0752 -0.04523,-0.11682 -0.01609,-0.0633 -0.01773,-0.0815 -0.01897,-0.21039 l -0.0011,-0.11631 0.0073,-0.0142 c 0.006,-0.0117 0.0099,-0.0157 0.02152,-0.022 0.01264,-0.007 0.01666,-0.008 0.03619,-0.008 0.01952,0 0.02355,7.5e-4 0.03618,0.008 0.01099,0.006 0.01578,0.0107 0.0211,0.0205 l 0.0069,0.0128 0.0012,0.11647 c 0.0011,0.10499 0.0017,0.11938 0.0067,0.14605 0.01184,0.0633 0.04058,0.13294 0.07467,0.18097 0.01945,0.0274 0.06202,0.0728 0.08806,0.094 0.113682,0.0924 0.269646,0.12363 0.414536,0.083 0.07318,-0.0206 0.133448,-0.0557 0.190329,-0.11082 0.05613,-0.0545 0.08878,-0.10546 0.113588,-0.17744 0.02249,-0.0653 0.02667,-0.10276 0.02591,-0.23267 l -5.77e-4,-0.0993 0.0072,-0.0132 c 0.0054,-0.0101 0.01043,-0.0151 0.02052,-0.0206 0.01189,-0.007 0.01578,-0.008 0.03656,-0.008 0.0301,7e-5 0.04632,0.008 0.05739,0.0264 l 0.0073,0.0123 -1.42e-4,0.1176 c -1.57e-4,0.13087 -0.0017,0.14923 -0.01802,0.21339 -0.0105,0.0413 -0.02226,0.0718 -0.04547,0.1177 -0.06557,0.12986 -0.167593,0.22309 -0.306224,0.27987 -0.04311,0.0177 -0.07415,0.0257 -0.144494,0.0375 l -0.01034,0.002 v 0.10848 0.10847 l 0.07625,0.002 0.07625,0.002 0.01219,0.007 c 0.02232,0.0132 0.03408,0.034 0.03396,0.06 -1.34e-4,0.0281 -0.0125,0.0483 -0.03719,0.0608 l -0.01527,0.008 -0.221708,-5e-5 -0.221707,-5e-5 -0.01422,-0.008 z m 0.183511,-0.54381 c -0.0293,-0.005 -0.05067,-0.0113 -0.07496,-0.0212 -0.09138,-0.0375 -0.159533,-0.1017 -0.201308,-0.18963 -0.02289,-0.0482 -0.03302,-0.0892 -0.03566,-0.14448 -0.0015,-0.0319 -0.0014,-0.0334 0.0054,-0.0482 0.0087,-0.019 0.01265,-0.0234 0.02796,-0.0312 0.0093,-0.005 0.01632,-0.006 0.02972,-0.006 0.04165,5e-5 0.06535,0.0268 0.06535,0.0737 0,0.0423 0.01631,0.0962 0.03973,0.13138 0.01646,0.0247 0.05553,0.0633 0.07728,0.0762 0.05233,0.0312 0.123013,0.0431 0.178938,0.0304 0.05365,-0.0122 0.08891,-0.0315 0.12545,-0.0684 0.03507,-0.0355 0.05392,-0.0706 0.06617,-0.12311 0.0045,-0.0193 0.0048,-0.0351 0.0048,-0.23779 v -0.21711 l -0.310158,-0.002 -0.310159,-0.002 v -0.24554 c 0,-0.22692 3.66e-4,-0.24731 0.0047,-0.2688 0.0098,-0.0485 0.03341,-0.10407 0.06199,-0.14581 0.0185,-0.027 0.0597,-0.0689 0.08664,-0.0881 0.02612,-0.0186 0.07455,-0.0436 0.103095,-0.0532 0.06421,-0.0215 0.140595,-0.0242 0.209185,-0.008 0.08203,0.0202 0.160507,0.0727 0.210181,0.14073 0.0088,0.0121 0.02443,0.0388 0.03468,0.0594 0.02645,0.0532 0.0378,0.0986 0.0378,0.15134 0,0.0224 -7.51e-4,0.0264 -0.0071,0.038 -0.006,0.011 -0.0096,0.0142 -0.02262,0.0203 -0.02189,0.0104 -0.04654,0.0104 -0.06627,1.5e-4 -0.02176,-0.0114 -0.02872,-0.0251 -0.03268,-0.0647 -0.0033,-0.0335 -0.0135,-0.0704 -0.02645,-0.0961 -0.01649,-0.0327 -0.05589,-0.0746 -0.09045,-0.0962 -0.03808,-0.0237 -0.09537,-0.0377 -0.141947,-0.0347 -0.06393,0.004 -0.116573,0.0275 -0.160576,0.0714 -0.03324,0.0331 -0.05071,0.0634 -0.06395,0.11076 l -0.007,0.025 v 0.17705 0.17705 l 0.308866,0.002 0.308866,0.002 7.32e-4,0.28559 c 8.32e-4,0.31767 0.0011,0.31105 -0.01643,0.36399 -0.02511,0.0757 -0.07542,0.14508 -0.136938,0.18875 -0.02335,0.0166 -0.07943,0.0456 -0.10325,0.0535 -0.03554,0.0117 -0.05606,0.0147 -0.108555,0.0156 -0.03562,5.8e-4 -0.05772,-1.5e-4 -0.07108,-0.002 z"
           style="fill:#dbe2e3;stroke-width:0.00258466" />
        <circle
           style="fill:none;fill-opacity:1;stroke:#d7eef4;stroke-width:0.22409271"
           id="circle1456"
           cx="66.216026"
           cy="108.53387"
           r="1.6411668" />
        <rect
           ry="0.13846081"
           y="115.39392"
           x="61.639069"
           height="1.3292246"
           width="9.1539087"
           id="rect1458"
           style="fill:#ffffff;fill-opacity:1;stroke:none;stroke-width:0.33227956" />
        <rect
           style="fill:#ffffff;fill-opacity:1;stroke:none;stroke-width:0.33227956"
           id="rect1460"
           width="9.1539087"
           height="1.3292246"
           x="61.639069"
           y="117.39845"
           ry="0.13846081" />
        <rect
           ry="0.13846081"
           y="120.43864"
           x="63.743816"
           height="1.3292246"
           width="4.9444137"
           id="rect1462"
           style="fill:#2c5aa0;fill-opacity:1;stroke:none;stroke-width:0.24420679" />
        <rect
           ry="0"
           y="127.58036"
           x="58.816002"
           height="2.149684"
           width="14.794182"
           id="rect1464"
           style="fill:#000000;fill-opacity:1;stroke:none;stroke-width:0.26458332" />
        <g
           style="fill:#ffffff"
           id="g3669"
           transform="matrix(0.00302134,0,0,0.00302134,71.345886,127.15825)">
          <g
             transform="matrix(5.9642345,0,0,5.9642345,-3911.5977,1766.7253)"
             id="g4781"
             style="fill:#ffffff">
            <path
               inkscape:connector-curvature="0"
               id="path4775"
               d="m 686.72031,-256.42554 c -4.47442,0 -8.18192,3.52565 -8.18192,7.7804 v 46.68088 c 0,5.59197 1.53418,10.819 4.21886,15.31689 -3.19604,1.33721 -5.36919,4.49792 -5.36919,8.02328 0,4.86258 4.09099,8.75244 9.20461,8.75244 3.7074,0 6.90333,-2.06651 8.30956,-5.10563 4.85796,2.67442 10.35534,4.13308 16.36387,4.13308 18.02556,0 32.72719,-13.97945 32.72719,-31.12006 0,-7.50338 -2.81763,-14.40144 -7.49774,-19.78587 l -11.47111,11.33574 c 1.64737,2.42961 2.605,5.3274 2.605,8.45013 0,8.63109 -7.28665,15.55977 -16.36334,15.55977 -9.07671,0 -16.36387,-6.92868 -16.36387,-15.55977 0,-8.63108 7.28716,-15.56029 16.36387,-15.56029 2.42798,0 4.7252,0.49956 6.79183,1.39113 l 12.21977,-11.83456 c -5.25748,-3.42736 -12.17971,-5.11686 -19.0116,-5.11686 -6.00853,0 -11.63375,1.5801 -16.36387,4.25452 v -19.81482 c 0,-4.25475 -3.70747,-7.7804 -8.18192,-7.7804 z"
               style="font-style:normal;font-variant:normal;font-weight:normal;font-stretch:normal;font-size:medium;font-family:'Geometry Soft Pro';-inkscape-font-specification:'Geometry Soft Pro';fill:#ffffff;fill-opacity:1;stroke:none;stroke-width:3.11658096" />
            <path
               inkscape:connector-curvature="0"
               id="path4777"
               d="m 743.46041,-186.49731 c -4.94345,7.82124 -8.01003,11.8984 -18.5717,15.72761 l 31.40794,-0.002 c 3.82304,-0.04 6.89281,-4.07229 6.93602,-7.75974 0.0426,-3.63694 -3.05533,-7.96537 -6.93602,-7.9654 z"
               style="fill:#ffffff;fill-opacity:1;stroke-width:3.25194788" />
          </g>
        </g>
        <path
           inkscape:connector-curvature="0"
           id="path2077"
           d="m 61.988093,118.06307 h 4.181364"
           style="fill:none;stroke:#808080;stroke-width:0.26458332px;stroke-linecap:butt;stroke-linejoin:miter;stroke-opacity:1" />
        <path
           style="fill:none;stroke:#808080;stroke-width:0.26458332px;stroke-linecap:butt;stroke-linejoin:miter;stroke-opacity:1"
           d="m 61.988093,116.05853 h 4.181364"
           id="path2079"
           inkscape:connector-curvature="0" />
      </g>
    </g>
  </g>
</svg>
